<svg width="512" height="512" viewBox="0 0 512 512" fill="none" xmlns="http://www.w3.org/2000/svg">
  <rect width="512" height="512" rx="128" fill="#121212"/>
  <path d="M256 96C167.634 96 96 167.634 96 256C96 344.366 167.634 416 256 416C344.366 416 416 344.366 416 256C416 167.634 344.366 96 256 96ZM256 128C272.464 128 288.032 131.264 302.4 137.104C308.22 139.702 310.286 146.75 307.688 152.57C305.09 158.39 298.042 160.456 292.222 157.858C280.614 153.194 268.57 150.66 256 150.66C232.26 150.66 209.86 159.5 192.46 176.5C175.06 193.5 166.66 215.08 166.66 238C166.66 260.92 175.5 282.5 192.5 299.5C209.5 316.5 231.08 324.9 254 324.9C271.9 324.9 289.04 319.38 303.64 309.06C309.22 305.5 316.5 306.84 320.06 312.42C323.62 318 322.28 325.28 316.7 328.84C298.46 341.68 276.86 348.66 254 348.66C225.14 348.66 198.28 338.16 177.9 318.1C157.16 297.72 146.66 271.14 146.66 242.28C146.66 213.42 157.16 186.56 177.22 166.18C197.3 145.8 223.88 128 252.74 128H256Z" fill="url(#paint0_linear)"/>
  <path d="M334.47 204.08L275.5 263.08L239.91 227.5C235.11 222.7 227.31 222.7 222.51 227.5C217.71 232.3 217.71 240.1 222.51 244.9L267.31 289.7C269.671 292.06 272.915 293.407 276.27 293.407C279.625 293.407 282.869 292.06 285.23 289.7L353.88 221.08C358.68 216.28 358.68 208.48 353.88 203.68C349.08 198.88 341.28 198.88 336.48 203.68L334.47 204.08Z" fill="url(#paint0_linear)"/>
  <defs>
    <linearGradient id="paint0_linear" x1="96" y1="96" x2="416" y2="416" gradientUnits="userSpaceOnUse">
      <stop stop-color="#cc73f8"/>
      <stop offset="1" stop-color="#9940D3"/>
    </linearGradient>
  </defs>
</svg> 